<svg xmlns="http://www.w3.org/2000/svg" xmlns:xlink="http://www.w3.org/1999/xlink" width="20" height="20" viewBox="0 0 20 20"><defs><style>.a,.c{fill:#1a4359;}.a{stroke:#707070;}.b{clip-path:url(#a);}</style><clipPath id="a"><rect class="a" width="20" height="20"/></clipPath></defs><g class="b"><path class="c" d="M19.722,3.333a3.611,3.611,0,0,1,3.611,3.611V19.722a3.611,3.611,0,0,1-3.611,3.611H6.944a3.611,3.611,0,0,1-3.611-3.611V6.944A3.611,3.611,0,0,1,6.944,3.333Zm1.944,6.111H5V19.722a1.944,1.944,0,0,0,1.944,1.944H19.722a1.944,1.944,0,0,0,1.944-1.944ZM8.611,16.111A1.389,1.389,0,1,1,7.222,17.5,1.389,1.389,0,0,1,8.611,16.111Zm4.722,0A1.389,1.389,0,1,1,11.944,17.5,1.389,1.389,0,0,1,13.333,16.111ZM8.611,11.667a1.389,1.389,0,1,1-1.389,1.389A1.389,1.389,0,0,1,8.611,11.667Zm4.722,0a1.389,1.389,0,1,1-1.389,1.389A1.389,1.389,0,0,1,13.333,11.667Zm4.722,0a1.389,1.389,0,1,1-1.389,1.389A1.389,1.389,0,0,1,18.056,11.667ZM19.722,5H6.944A1.944,1.944,0,0,0,5,6.944v.833H21.667V6.944A1.944,1.944,0,0,0,19.722,5Z" transform="translate(-3.333 -3.333)"/></g></svg>