<svg xmlns="http://www.w3.org/2000/svg" xmlns:xlink="http://www.w3.org/1999/xlink" width="20" height="20" viewBox="0 0 20 20"><defs><style>.a,.c{fill:#1a4359;}.a{stroke:#707070;}.b{clip-path:url(#a);}</style><clipPath id="a"><rect class="a" width="20" height="20" transform="translate(344 141)"/></clipPath></defs><g class="b" transform="translate(-344 -141)"><path class="c" d="M12,2A10,10,0,1,1,2,12,10,10,0,0,1,12,2Zm0,1.667A8.333,8.333,0,1,0,20.333,12,8.342,8.342,0,0,0,12,3.667ZM11.25,6a.75.75,0,0,1,.743.648l.007.1V12h3.25a.75.75,0,0,1,.1,1.493l-.1.007h-4a.75.75,0,0,1-.743-.648l-.007-.1v-6A.75.75,0,0,1,11.25,6Z" transform="translate(342 139)"/></g></svg>