<svg xmlns="http://www.w3.org/2000/svg" xmlns:xlink="http://www.w3.org/1999/xlink" width="20" height="20" viewBox="0 0 20 20"><defs><style>.a,.c{fill:#1a4359;}.a{stroke:#707070;}.b{clip-path:url(#a);}</style><clipPath id="a"><rect class="a" width="20" height="20" transform="translate(12 12)"/></clipPath></defs><g class="b" transform="translate(-12 -12)"><path class="c" d="M12,2A10,10,0,1,1,2,12,10,10,0,0,1,12,2Zm0,1.5A8.5,8.5,0,1,0,20.5,12,8.5,8.5,0,0,0,12,3.5Zm3.446,4.9.084.073a.75.75,0,0,1,.073.977l-.073.084L13.061,12l2.469,2.47a.75.75,0,0,1,.073.977l-.073.084a.75.75,0,0,1-.977.073l-.084-.073L12,13.061,9.53,15.53a.75.75,0,0,1-.977.073L8.47,15.53a.75.75,0,0,1-.073-.977l.073-.084L10.939,12,8.47,9.53A.75.75,0,0,1,8.4,8.554L8.47,8.47A.75.75,0,0,1,9.446,8.4l.084.073L12,10.939,14.47,8.47A.75.75,0,0,1,15.446,8.4Z" transform="translate(10 10)"/></g></svg>