<svg xmlns="http://www.w3.org/2000/svg" xmlns:xlink="http://www.w3.org/1999/xlink" width="20" height="20" viewBox="0 0 20 20"><defs><style>.a,.c{fill:#1a4359;}.a{stroke:#707070;}.b{clip-path:url(#a);}</style><clipPath id="a"><rect class="a" width="20" height="20" transform="translate(12 12)"/></clipPath></defs><g class="b" transform="translate(-12 -12)"><path class="c" d="M12,2A10,10,0,1,1,2,12,10,10,0,0,1,12,2Zm3.53,6.47L15.446,8.4a.751.751,0,0,0-.883-.007l-.094.08L12,10.939,9.53,8.47,9.446,8.4a.751.751,0,0,0-.883-.007l-.094.08L8.4,8.554a.751.751,0,0,0-.007.883l.08.094L10.939,12,8.47,14.47l-.073.084a.751.751,0,0,0-.007.883l.08.094.084.073a.75.75,0,0,0,.883.007l.094-.08L12,13.061l2.47,2.469.084.073a.75.75,0,0,0,.883.007l.094-.08.073-.084a.75.75,0,0,0,.007-.883l-.08-.094L13.061,12,15.53,9.53l.073-.084a.75.75,0,0,0,.007-.883l-.08-.094L15.446,8.4Z" transform="translate(10 10)"/></g></svg>